# xmcd CD database file
#
# Track frame offsets:
#	150
#	12225
#	30650
#	44700
#	58517
#	70845
#	81425
#	95935
#	105940
#	119812
#	132452
#	149750
#	165472
#	178870
#	194200
#	208952
#
# Disc length: 2936 seconds
#
# Revision: 0
# Processed by: cddbd v1.4PL0 Copyright (c) Steve Scherf et al.
# Submitted via: CDex 1.50beta8
#
DISCID=030b7610
DTITLE=Barbara Ray - The Very Best of
DYEAR=2002
DGENRE=Country
TTITLE0=Tears on my pillow
TTITLE1=Walking talking dolly
TTITLE2=Sayonara
TTITLE3=Tiny Bubbles
TTITLE4=What's wrong with the way
TTITLE5=Just someone I used to know
TTITLE6=Silver thread among the gold
TTITLE7=Medal for mothers
TTITLE8=Down in Mississipi
TTITLE9=Wasn't that love
TTITLE10=Singing in the kitchen
TTITLE11=Voices
TTITLE12=Made for each other
TTITLE13=Angel
TTITLE14=You take the children
TTITLE15=I don't wanna play house
EXTD=YEAR: 2002
EXTT0=
EXTT1=
EXTT2=
EXTT3=
EXTT4=
EXTT5=
EXTT6=
EXTT7=
EXTT8=
EXTT9=
EXTT10=
EXTT11=
EXTT12=
EXTT13=
EXTT14=
EXTT15=
PLAYORDER=
